<?xml version="1.0" standalone="no"?><!DOCTYPE svg PUBLIC "-//W3C//DTD SVG 1.1//EN" "http://www.w3.org/Graphics/SVG/1.1/DTD/svg11.dtd"><svg t="1701346969259" class="icon" viewBox="0 0 1024 1024" version="1.1" xmlns="http://www.w3.org/2000/svg" p-id="10580" xmlns:xlink="http://www.w3.org/1999/xlink" width="32" height="32"><path d="M268.15488 962.56c-2.79552 0-5.10976-0.50176-7.26528-1.58208a18.14528 18.14528 0 0 1-10.97216-16.66048V819.7632h-185.6c-9.88672 0-18.23744-8.35072-18.23744-18.23232V288.22528c0-9.88672 8.35072-18.23744 18.23744-18.23744h752.71168a18.04288 18.04288 0 0 1 18.23744 18.23744V801.536c0 9.8816-8.35072 18.23232-18.23744 18.23232H439.82336l-159.63136 138.20416c-3.23584 2.83648-7.84384 4.58752-12.03712 4.58752z m-170.20416-186.69568h177.63328c9.30816 0 17.17248 7.86432 17.17248 17.17248v98.80576l128.96768-111.91808c3.34336-2.49344 7.64416-4.05504 11.50976-4.05504h350.16192V319.20128H97.95072v456.66304z" p-id="10581" fill="#707070"></path><path d="M653.53728 472.4224H228.87424c-12.74368 0-23.36256-12.73856-23.36256-28.66688s10.61376-28.66688 23.36256-28.66688h424.65792c12.73344 0 23.35744 12.73856 23.35744 28.66688s-10.61888 28.66688-23.35232 28.66688z m-115.18976 182.07232H233.6512c-15.9232 0-29.19424-12.74368-29.19424-28.672s12.73856-28.65664 29.19424-28.65664h304.69632c15.91808 0 28.66176 12.72832 28.66176 28.65664s-12.74368 28.672-28.66176 28.672z" p-id="10582" fill="#707070"></path><path d="M233.6512 649.37472c-13.27616 0-24.07424-10.56256-24.07424-23.552 0-13.19424 10.5728-23.53664 24.07424-23.53664h304.69632c13.19936 0 23.54176 10.3424 23.54176 23.53664 0 13.20448-10.3424 23.552-23.54176 23.552H233.6512z m-4.77696-182.07232c-10.05568 0-18.24256-10.56256-18.24256-23.54688s8.18176-23.54688 18.24256-23.54688h424.65792c10.05568 0 18.23744 10.56256 18.23744 23.54688s-8.18176 23.54688-18.23744 23.54688H228.87424z" p-id="10583" fill="#707070"></path><path d="M882.85184 605.02016c-0.42496 0-1.24928-0.44032-1.24928-1.24928v-41.40544c0-0.42496 0.44032-1.24928 1.24928-1.24928h23.35232a11.50464 11.50464 0 0 0 11.4944-11.4944V116.47488a11.50464 11.50464 0 0 0-11.4944-11.48928H243.73248a11.49952 11.49952 0 0 0-11.48928 11.48928v55.73632c0 0.42496-0.44032 1.24928-1.2544 1.24928h-48.83456c-0.42496 0-1.2544-0.44032-1.2544-1.24928V80.37376a24.63232 24.63232 0 0 1 24.60672-24.60672h739.43552c13.85984 0 25.1392 11.03872 25.1392 24.60672v499.51232a25.1648 25.1648 0 0 1-25.1392 25.13408h-62.09024z" p-id="10584" fill="#707070"></path></svg>