<?xml version="1.0" standalone="no"?><!DOCTYPE svg PUBLIC "-//W3C//DTD SVG 1.1//EN" "http://www.w3.org/Graphics/SVG/1.1/DTD/svg11.dtd"><svg t="1701346529365" class="icon" viewBox="0 0 1024 1024" version="1.1" xmlns="http://www.w3.org/2000/svg" p-id="37765" width="32" height="32" xmlns:xlink="http://www.w3.org/1999/xlink"><path d="M212.73088 814.49472c-42.22976-2.78016-69.80096 4.3008-68.096-53.94944v-140.07296c-0.00512-20.3008-11.93984-36.75136-26.66496-36.74112-14.70976 0.01536-26.63424 16.45056-26.63936 36.74112v140.07296c-1.6896 98.83648 54.85568 114.42176 126.52032 117.22752 14.72 0 26.6496-16.4608 26.6496-36.7616s-17.0496-26.51648-31.7696-26.51648z m414.6944-10.24h-104.12544c-14.72 0-26.65472 16.45568-26.65472 36.75648s11.93472 36.7616 26.65472 36.7616h104.30464c14.72 0 26.6496-16.4608 26.6496-36.7616s-11.9296-36.75648-26.6496-36.75648h-0.1792z m323.0464-296.26368l-112.30208-121.5744c-18.19648-31.6672-45.87008-39.92064-75.1616-39.99744h-85.2992V206.82752C679.40352 107.89376 632.99072 71.79264 561.25952 69.12h-353.64864c-71.66464 2.80064-116.31616 10.24-116.28032 127.46752v15.92832c0.00512 20.3008 11.94496 36.74624 26.66496 36.736 14.70976-0.00512 26.63424-16.45056 26.63936-36.736v-15.92832c-1.70496-58.25024 20.74624-61.40928 62.976-64.19456h353.64864c42.29632 2.65216 64.84992 16.08704 63.15008 74.43456v401.39264c0 20.3008 11.9296 36.75648 26.6496 36.75648s26.6496-16.45568 26.6496-36.75648V409.69728h85.2992c13.12256 0.16384 25.48224 8.5504 33.58208 22.78912l112.30208 121.5744c11.43808 19.58912 17.70496 43.96032 17.77152 69.10976v173.952c1.34144 29.76256-15.4624 27.61728-15.4624 27.61728-14.72 0-26.6496 6.21568-26.6496 26.51648s11.9296 26.5216 26.6496 26.5216h6.4c34.34496 0 62.18752-16.32256 62.18752-63.68768v-190.90944c0-41.8816-10.3424-82.50368-29.31712-115.18976z" p-id="37766" fill="#707070"></path><path d="M483.3536 432.93184a26.65472 26.65472 0 0 0-26.65472-26.65472h-338.75456c-14.72 0-26.6496 11.93472-26.6496 26.65472s11.9296 26.65472 26.6496 26.65472h338.75456a26.65984 26.65984 0 0 0 26.65472-26.65472zM403.9936 345.89184a26.65472 26.65472 0 0 0-26.65472-26.65472h-338.75456c-14.72 0-26.6496 11.93472-26.6496 26.65472s11.9296 26.65472 26.6496 26.65472h338.75456a26.65984 26.65984 0 0 0 26.65472-26.65472zM508.88704 548.4288a26.65472 26.65472 0 0 0 0-53.30944H170.1376a26.65472 26.65472 0 0 0 0 53.30944h338.74944zM366.75584 753.38752c-53.98016 0-97.73568 43.75552-97.73568 97.73056s43.75552 97.73056 97.73568 97.73056c53.97504 0 97.73056-43.75552 97.73056-97.73056-0.1024-53.9392-43.8016-97.6384-97.73056-97.73056z m0 139.136c-22.8352 0-41.41568-18.57536-41.41568-41.41056s18.58048-41.41056 41.41568-41.41056c22.74304 0.04096 41.3696 18.66752 41.41056 41.51296 0 22.7328-18.57536 41.30816-41.41056 41.30816zM775.44448 753.38752c-53.98016 0-97.73568 43.75552-97.73568 97.73056s43.75552 97.73056 97.73568 97.73056c53.97504 0 97.73056-43.75552 97.73056-97.73056-0.1024-53.9392-43.8016-97.6384-97.73056-97.73056z m0 139.136c-22.8352 0-41.41568-18.57536-41.41568-41.41056s18.58048-41.41056 41.41568-41.41056c22.74304 0.04096 41.3696 18.66752 41.41056 41.51296 0 22.7328-18.57536 41.30816-41.41056 41.30816z" p-id="37767" fill="#707070"></path></svg>